<svg width="28" height="28" viewBox="0 0 28 28" fill="none" xmlns="http://www.w3.org/2000/svg">
<path fill-rule="evenodd" clip-rule="evenodd" d="M24.501 12C24.501 16.9706 20.4715 21 15.501 21C10.5304 21 6.50098 16.9706 6.50098 12C6.50098 7.02944 10.5304 3 15.501 3C20.4715 3 24.501 7.02944 24.501 12ZM27.501 12C27.501 18.6274 22.1284 24 15.501 24C12.7289 24 10.1764 23.0601 8.14471 21.4815L2.62132 27.0049L0.5 24.8836L6.0229 19.3607C4.44228 17.3283 3.50098 14.7741 3.50098 12C3.50098 5.37258 8.87356 0 15.501 0C22.1284 0 27.501 5.37258 27.501 12Z" fill="white"/>
</svg>
